{"title":"Fantastic Four {2015} NEW HDCAM-MRG","uid":12212357,"size":1441111010,"categoryP":"video","categoryS":"movies","magnet":"?xt=urn:btih:d0226ac42107081331cbd67a7ce0f4e7cdf7982d&amp;dn=Fantastic+Four+%7B2015%7D+NEW+HDCAM-MRG&amp;tr=udp%3A%2F%2Ftracker.openbittorrent.com%3A80&amp;tr=udp%3A%2F%2Fopen.demonii.com%3A1337&amp;tr=udp%3A%2F%2Ftracker.coppersurfer.tk%3A6969&amp;tr=udp%3A%2F%2Fexodus.desync.com%3A6969","seeders":30,"leechers":6,"uploader":"SaM","files":18,"time":1439132459,"description":"Fantastic Four {2015} NEW HDCAM XVID AC3-MRG.avi\n\nnfo : New video..Proper HDCAM....frm..LATok...Thnx\n\nFormat : AVI\nFormat/Info : Audio Video Interleave\nFile size : 1.34 GiB\nDuration : 1h 32mn\nOverall bit rate : 2 073 Kbps\n\nVideo\nID : 0\nFormat : MPEG-4 Visual\nFormat profile : Simple@L1\nFormat settings, BVOP : No\nFormat settings, QPel : No\nFormat settings, GMC : No warppoints\nFormat settings, Matrix : Default (H.263)\nCodec ID : DIVX\nCodec ID/Info : Project Mayo\nCodec ID/Hint : DivX 4\nDuration : 1h 32mn\nBit rate : 1 935 Kbps\nWidth : 720 pixels\nHeight : 304 pixels\nDisplay aspect ratio : 2.25:1\nFrame rate : 25.000 fps\nColor space : YUV\nChroma subsampling : 4:2:0\nBit depth : 8 bits\nScan type : Progressive\nCompression mode : Lossy\nBits/(Pixel*Frame) : 0.354\nStream size : 1.25 GiB (93%)\nWriting library : Lavc53.42.4\n\nAudio\nID : 1\nFormat : AC-3\nFormat/Info : Audio Coding 3\nMode extension : CM (complete main)\nFormat settings, Endianness : Big\nCodec ID : 2000\nDuration : 1h 32mn\nBit rate mode : Constant\nBit rate : 128 Kbps\nChannel(s) : 2 channels\nChannel positions : Front: L R\nSampling rate : 44.1 KHz\nCompression mode : Lossy\nStream size : 84.3 MiB (6%)\nAlignment : Aligned on interleaves\nInterleave, duration : 35 ms (0.87 video frame)\n &lt;a href=&quot;\nhttp://extraimago.com/image/SgP&quot; rel=&quot;nofollow&quot; target=&quot;_NEW&quot;&gt;\nhttp://extraimago.com/image/SgP&lt;/a&gt; &lt;a href=&quot;\nhttp://extraimago.com/image/SgX&quot; rel=&quot;nofollow&quot; target=&quot;_NEW&quot;&gt;\nhttp://extraimago.com/image/SgX&lt;/a&gt; &lt;a href=&quot;\nhttp://extraimago.com/image/Sgg&quot; rel=&quot;nofollow&quot; target=&quot;_NEW&quot;&gt;\nhttp://extraimago.com/image/Sgg&lt;/a&gt; &lt;a href=&quot;\nhttp://extraimago.com/image/Sg5&quot; rel=&quot;nofollow&quot; target=&quot;_NEW&quot;&gt;\nhttp://extraimago.com/image/Sg5&lt;/a&gt; &lt;a href=&quot;\nhttp://extraimago.com/image/SgD&quot; rel=&quot;nofollow&quot; target=&quot;_NEW&quot;&gt;\nhttp://extraimago.com/image/SgD&lt;/a&gt; &lt;a href=&quot;\nhttp://extraimago.com/image/SgF&quot; rel=&quot;nofollow&quot; target=&quot;_NEW&quot;&gt;\nhttp://extraimago.com/image/SgF&lt;/a&gt; &lt;a href=&quot;\nhttp://extraimago.com/image/SgH&quot; rel=&quot;nofollow&quot; target=&quot;_NEW&quot;&gt;\nhttp://extraimago.com/image/SgH&lt;/a&gt; &lt;a href=&quot;\nhttp://extraimago.com/image/Sgk&quot; rel=&quot;nofollow&quot; target=&quot;_NEW&quot;&gt;\nhttp://extraimago.com/image/Sgk&lt;/a&gt; &lt;a href=&quot;\nhttp://extraimago.com/image/Sgo&quot; rel=&quot;nofollow&quot; target=&quot;_NEW&quot;&gt;\nhttp://extraimago.com/image/Sgo&lt;/a&gt; &lt;a href=&quot;\nhttp://extraimago.com/image/Sgx&quot; rel=&quot;nofollow&quot; target=&quot;_NEW&quot;&gt;\nhttp://extraimago.com/image/Sgx&lt;/a&gt; &lt;a href=&quot;\nhttp://extraimago.com/image/Sg6&quot; rel=&quot;nofollow&quot; target=&quot;_NEW&quot;&gt;\nhttp://extraimago.com/image/Sg6&lt;/a&gt;","torrent":{"xt":"urn:btih:d0226ac42107081331cbd67a7ce0f4e7cdf7982d","amp;dn":"Fantastic+Four+%7B2015%7D+NEW+HDCAM-MRG","amp;tr":["udp%3A%2F%2Ftracker.openbittorrent.com%3A80","udp%3A%2F%2Fopen.demonii.com%3A1337","udp%3A%2F%2Ftracker.coppersurfer.tk%3A6969","udp%3A%2F%2Fexodus.desync.com%3A6969"],"infoHash":"d0226ac42107081331cbd67a7ce0f4e7cdf7982d","infoHashBuffer":{"type":"Buffer","data":[208,34,106,196,33,7,8,19,49,203,214,122,124,224,244,231,205,247,152,45]},"announce":[],"urlList":[]}}